<svg xmlns="http://www.w3.org/2000/svg" viewBox="0 0 1920 800">
  <defs>
    <linearGradient id="sky" x1="0" y1="0" x2="0" y2="1">
      <stop offset="0" stop-color="#8FB9CE"/>
      <stop offset="1" stop-color="#F6DDBB"/>
    </linearGradient>
    <radialGradient id="sun" cx="0.5" cy="0.5" r="0.5">
      <stop offset="0" stop-color="#E8A94C" stop-opacity="0.9"/>
      <stop offset="0.55" stop-color="#E8A94C" stop-opacity="0.35"/>
      <stop offset="1" stop-color="#E8A94C" stop-opacity="0"/>
    </radialGradient>
  </defs>
  <rect width="1920" height="800" fill="url(#sky)"/>
  <circle cx="1520" cy="180" r="330" fill="url(#sun)"/>
  <circle cx="1520" cy="180" r="72" fill="#E8A94C" stroke="#2E2418" stroke-width="2.5"/>
  <path d="M0 520 L240 330 L430 470 L640 300 L860 500 L1080 360 L1300 520 L1520 380 L1720 500 L1920 400 L1920 570 L0 570 Z" fill="#9B8571" opacity="0.45"/>
  <path d="M0 570 L320 430 L600 560 L900 440 L1200 570 L1500 460 L1800 570 L1920 520 L1920 630 L0 630 Z" fill="#B99B7B" opacity="0.55"/>
  <g fill="#F6F2E9">
    <ellipse cx="200" cy="650" rx="330" ry="90"/>
    <ellipse cx="620" cy="620" rx="360" ry="100"/>
    <ellipse cx="1060" cy="650" rx="380" ry="95"/>
    <ellipse cx="1500" cy="625" rx="360" ry="100"/>
    <ellipse cx="1860" cy="655" rx="300" ry="90"/>
    <ellipse cx="420" cy="730" rx="380" ry="95"/>
    <ellipse cx="900" cy="745" rx="420" ry="100"/>
    <ellipse cx="1380" cy="735" rx="400" ry="95"/>
    <ellipse cx="1780" cy="755" rx="360" ry="90"/>
  </g>
  <g stroke-linejoin="round">
    <path d="M0 800 L0 560 L150 516 L320 560 L470 660 L560 800 Z" fill="#B99B7B"/>
    <path d="M0 560 L150 516 L320 560 L470 660 L300 706 L90 644 Z" fill="#C9A98A"/>
    <path d="M90 644 L300 706 L470 660 L560 800 L0 800 L0 560 Z" fill="#9B8571" opacity="0.5"/>
    <path d="M0 560 L150 516 L320 560 L470 660 L560 800" fill="none" stroke="#2E2418" stroke-width="2.5"/>
  </g>
  <line x1="150" y1="520" x2="150" y2="170" stroke="#8A6B4E" stroke-width="9" stroke-linecap="round"/>
  <path d="M150 172 Q 280 184 380 246 Q 280 300 150 312 Z" fill="#D0713F" stroke="#2E2418" stroke-width="2.5" stroke-linejoin="round"/>
  <g stroke-linecap="round">
    <rect x="196" y="452" width="40" height="74" rx="20" fill="#D0713F" stroke="#2E2418" stroke-width="2.5"/>
    <circle cx="216" cy="432" r="20" fill="#D0713F" stroke="#2E2418" stroke-width="2.5"/>
    <line x1="208" y1="524" x2="202" y2="542" stroke="#D0713F" stroke-width="10"/>
    <line x1="224" y1="524" x2="230" y2="542" stroke="#D0713F" stroke-width="10"/>
    <line x1="232" y1="472" x2="262" y2="436" stroke="#D0713F" stroke-width="11"/>
    <rect x="256" y="462" width="40" height="74" rx="20" fill="#7FA07A" stroke="#2E2418" stroke-width="2.5"/>
    <circle cx="276" cy="442" r="20" fill="#7FA07A" stroke="#2E2418" stroke-width="2.5"/>
    <line x1="268" y1="534" x2="262" y2="552" stroke="#7FA07A" stroke-width="10"/>
    <line x1="284" y1="534" x2="290" y2="552" stroke="#7FA07A" stroke-width="10"/>
    <line x1="260" y1="482" x2="264" y2="438" stroke="#7FA07A" stroke-width="11"/>
  </g>
</svg>
