<svg xmlns="http://www.w3.org/2000/svg" viewBox="0 0 1920 800">
  <defs>
    <linearGradient id="sky" x1="0" y1="0" x2="0" y2="1">
      <stop offset="0" stop-color="#8FB9CE"/>
      <stop offset="1" stop-color="#F6DDBB"/>
    </linearGradient>
    <radialGradient id="glow" cx="0.5" cy="0.5" r="0.5">
      <stop offset="0" stop-color="#E8A94C" stop-opacity="0.75"/>
      <stop offset="1" stop-color="#E8A94C" stop-opacity="0"/>
    </radialGradient>
  </defs>
  <rect x="0" y="0" width="1920" height="800" fill="url(#sky)"/>
  <circle cx="1450" cy="240" r="430" fill="url(#glow)"/>
  <circle cx="1450" cy="240" r="86" fill="#E8A94C" stroke="#2E2418" stroke-width="2.5"/>
  <polygon points="0,560 240,362 430,482 640,352 900,505 900,560" fill="#9B8571" opacity="0.5"/>
  <polygon points="820,560 1080,382 1300,492 1560,372 1810,492 1920,442 1920,560" fill="#9B8571" opacity="0.35"/>
  <rect x="0" y="525" width="1920" height="135" fill="#F6F2E9"/>
  <g fill="#F6F2E9">
    <ellipse cx="60" cy="525" rx="180" ry="58"/>
    <ellipse cx="265" cy="525" rx="170" ry="52"/>
    <ellipse cx="475" cy="525" rx="185" ry="60"/>
    <ellipse cx="695" cy="525" rx="175" ry="54"/>
    <ellipse cx="920" cy="525" rx="190" ry="58"/>
    <ellipse cx="1150" cy="525" rx="175" ry="52"/>
    <ellipse cx="1390" cy="525" rx="185" ry="58"/>
    <ellipse cx="1640" cy="525" rx="175" ry="54"/>
    <ellipse cx="1865" cy="525" rx="185" ry="56"/>
    <ellipse cx="150" cy="648" rx="185" ry="48"/>
    <ellipse cx="380" cy="648" rx="175" ry="44"/>
    <ellipse cx="620" cy="648" rx="185" ry="48"/>
    <ellipse cx="870" cy="648" rx="180" ry="44"/>
    <ellipse cx="1120" cy="648" rx="185" ry="48"/>
    <ellipse cx="1370" cy="648" rx="175" ry="44"/>
    <ellipse cx="1610" cy="648" rx="185" ry="48"/>
    <ellipse cx="1840" cy="648" rx="180" ry="44"/>
  </g>
  <path d="M0,800 L0,652 C420,604 900,600 1300,614 C1560,622 1760,610 1920,602 L1920,800 Z" fill="#B99B7B"/>
  <polygon points="0,800 0,652 330,626 440,800" fill="#9B8571"/>
  <polygon points="1920,602 1920,800 1610,800 1496,616" fill="#CBB091"/>
  <path d="M0,652 C420,604 900,600 1300,614 C1560,622 1760,610 1920,602" fill="none" stroke="#2E2418" stroke-width="2.5"/>
  <line x1="480" y1="648" x2="480" y2="332" stroke="#2E2418" stroke-width="6" stroke-linecap="round"/>
  <circle cx="480" cy="324" r="9" fill="#E8A94C" stroke="#2E2418" stroke-width="2.5"/>
  <polygon points="480,340 666,382 480,424" fill="#D0713F" stroke="#2E2418" stroke-width="2.5" stroke-linejoin="round"/>
  <rect x="748" y="535" width="44" height="88" rx="22" fill="#D0713F" stroke="#2E2418" stroke-width="2.5"/>
  <circle cx="770" cy="507" r="20" fill="#D0713F" stroke="#2E2418" stroke-width="2.5"/>
  <line x1="788" y1="558" x2="841" y2="490" stroke="#D0713F" stroke-width="10" stroke-linecap="round"/>
  <rect x="898" y="535" width="44" height="88" rx="22" fill="#7FA07A" stroke="#2E2418" stroke-width="2.5"/>
  <circle cx="920" cy="507" r="20" fill="#7FA07A" stroke="#2E2418" stroke-width="2.5"/>
  <line x1="902" y1="558" x2="858" y2="490" stroke="#7FA07A" stroke-width="10" stroke-linecap="round"/>
  <circle cx="849" cy="487" r="8" fill="#E8A94C" stroke="#2E2418" stroke-width="2.5"/>
</svg>
