<svg xmlns="http://www.w3.org/2000/svg" viewBox="0 0 1920 1080">
  <defs>
    <linearGradient id="sky" x1="0" y1="0" x2="0" y2="1">
      <stop offset="0" stop-color="#8FB9CE"/>
      <stop offset="1" stop-color="#F6DDBB"/>
    </linearGradient>
    <radialGradient id="glow" cx="0.5" cy="0.5" r="0.5">
      <stop offset="0" stop-color="#E8A94C" stop-opacity="0.8"/>
      <stop offset="1" stop-color="#E8A94C" stop-opacity="0"/>
    </radialGradient>
    <g id="cloud" fill="#F6F2E9">
      <ellipse cx="0" cy="0" rx="120" ry="42"/>
      <ellipse cx="-82" cy="14" rx="80" ry="32"/>
      <ellipse cx="86" cy="12" rx="86" ry="34"/>
      <ellipse cx="8" cy="-30" rx="72" ry="34"/>
    </g>
    <g id="pine">
      <rect x="-10" y="30" width="20" height="34" rx="7" fill="#8A6B4E" stroke="#2E2418" stroke-width="2.5"/>
      <path d="M0 -78 L54 4 L-54 4 Z" fill="#6F8F67" stroke="#2E2418" stroke-width="2.5" stroke-linejoin="round"/>
      <path d="M0 -34 L66 34 L-66 34 Z" fill="#6F8F67" stroke="#2E2418" stroke-width="2.5" stroke-linejoin="round"/>
    </g>
  </defs>
  <rect width="1920" height="1080" fill="url(#sky)"/>
  <circle cx="1480" cy="230" r="240" fill="url(#glow)"/>
  <circle cx="1480" cy="230" r="84" fill="#E8A94C" stroke="#2E2418" stroke-width="2.5"/>
  <use href="#cloud" transform="translate(330 210)"/>
  <use href="#cloud" transform="translate(760 140) scale(0.7)"/>
  <use href="#cloud" transform="translate(1240 330) scale(0.9)"/>
  <use href="#cloud" transform="translate(1660 430) scale(0.6)"/>
  <path d="M0 1080 L300 640 L520 860 L720 1080 Z" fill="#9B8571" opacity="0.45"/>
  <path d="M1330 1080 L1600 660 L1780 830 L1920 700 L1920 1080 Z" fill="#9B8571" opacity="0.4"/>
  <g stroke-linejoin="round">
    <path d="M350 1080 L700 610 L960 1080 Z" fill="#9B8571"/>
    <path d="M700 610 L960 250 L960 1080 Z" fill="#B99B7B"/>
    <path d="M960 250 L1240 630 L960 1080 Z" fill="#C9A98A"/>
    <path d="M1240 630 L1570 1080 L960 1080 Z" fill="#B99B7B"/>
    <path d="M960 250 L852 428 L912 470 L968 420 L1038 476 L1098 432 Z" fill="#F6F2E9"/>
    <path d="M700 610 L652 700 L724 726 L764 664 Z" fill="#F6F2E9" opacity="0.9"/>
    <path d="M1240 630 L1180 716 L1262 742 L1304 676 Z" fill="#F6F2E9" opacity="0.9"/>
    <path d="M350 1080 L960 250 L1570 1080" fill="none" stroke="#2E2418" stroke-width="2.5"/>
  </g>
  <path d="M830 1020 C 930 950 800 900 860 820 C 920 740 1010 760 990 660 C 970 560 900 540 940 450 C 960 400 950 330 958 292" fill="none" stroke="#E8A94C" stroke-width="9" stroke-linecap="round" stroke-dasharray="0.5 34"/>
  <line x1="960" y1="252" x2="960" y2="150" stroke="#8A6B4E" stroke-width="7" stroke-linecap="round"/>
  <path d="M960 150 L960 208 L1046 180 Z" fill="#D0713F" stroke="#2E2418" stroke-width="2.5" stroke-linejoin="round"/>
  <path d="M0 1016 Q 480 946 960 1010 T 1920 1004 L 1920 1080 L 0 1080 Z" fill="#F3EAD8"/>
  <use href="#pine" transform="translate(180 1000)"/>
  <use href="#pine" transform="translate(300 1030) scale(0.75)"/>
  <use href="#pine" transform="translate(96 1040) scale(0.6)"/>
  <use href="#pine" transform="translate(1620 1010) scale(0.9)"/>
  <use href="#pine" transform="translate(1740 1036) scale(0.7)"/>
  <use href="#pine" transform="translate(1848 1020) scale(0.55)"/>
</svg>
