<svg xmlns="http://www.w3.org/2000/svg" viewBox="0 0 800 600">
  <rect x="0" y="0" width="800" height="600" fill="#F3EAD8"/>
  <circle cx="118" cy="96" r="44" fill="#E8A94C" stroke="#2E2418" stroke-width="2.5"/>
  <g fill="#F6F2E9">
    <ellipse cx="600" cy="86" rx="66" ry="26"/>
    <ellipse cx="655" cy="68" rx="56" ry="32"/>
    <ellipse cx="708" cy="88" rx="60" ry="24"/>
  </g>
  <polygon points="290,600 330,240 480,140 430,600" fill="#9B8571"/>
  <polygon points="480,140 430,600 600,600 560,176" fill="#B99B7B"/>
  <polygon points="560,176 650,200 720,600 600,600" fill="#CBB091"/>
  <path d="M290,600 L330,240 L480,140 L650,200 L720,600" fill="none" stroke="#2E2418" stroke-width="2.5" stroke-linejoin="round"/>
  <line x1="480" y1="140" x2="480" y2="66" stroke="#2E2418" stroke-width="4.5" stroke-linecap="round"/>
  <polygon points="480,70 562,92 480,114" fill="#D0713F" stroke="#2E2418" stroke-width="2.5" stroke-linejoin="round"/>
  <rect x="250" y="428" width="112" height="18" rx="8" fill="#8A6B4E" stroke="#2E2418" stroke-width="2.5"/>
  <rect x="360" y="268" width="112" height="18" rx="8" fill="#8A6B4E" stroke="#2E2418" stroke-width="2.5"/>
  <rect x="560" y="478" width="104" height="18" rx="8" fill="#8A6B4E" stroke="#2E2418" stroke-width="2.5"/>
  <rect x="272" y="350" width="36" height="80" rx="18" fill="#D0713F" stroke="#2E2418" stroke-width="2.5"/>
  <circle cx="290" cy="326" r="17" fill="#D0713F" stroke="#2E2418" stroke-width="2.5"/>
  <line x1="303" y1="368" x2="368" y2="302" stroke="#D0713F" stroke-width="9" stroke-linecap="round"/>
  <rect x="382" y="190" width="36" height="80" rx="18" fill="#7FA07A" stroke="#2E2418" stroke-width="2.5"/>
  <circle cx="400" cy="166" r="17" fill="#7FA07A" stroke="#2E2418" stroke-width="2.5"/>
  <line x1="387" y1="212" x2="380" y2="296" stroke="#7FA07A" stroke-width="9" stroke-linecap="round"/>
  <circle cx="375" cy="299" r="7" fill="#E8A94C" stroke="#2E2418" stroke-width="2.5"/>
</svg>
