<svg xmlns="http://www.w3.org/2000/svg" viewBox="0 0 800 600">
  <rect x="0" y="0" width="800" height="600" fill="#F3EAD8"/>
  <path d="M110,430 L320,190 L530,430 Z" fill="#B99B7B" opacity="0.3"/>
  <polygon points="320,190 285,248 306,238 320,260 336,236 356,248" fill="#F6F2E9" opacity="0.9"/>
  <line x1="320" y1="190" x2="320" y2="140" stroke="#2E2418" stroke-width="3" stroke-linecap="round"/>
  <polygon points="320,142 372,155 320,168" fill="#D0713F"/>
  <path d="M195,425 L605,425 L640,462 Q640,472 628,472 L172,472 Q160,472 160,462 Z" fill="#B99B7B" stroke="#2E2418" stroke-width="2.5" stroke-linejoin="round"/>
  <rect x="225" y="195" width="350" height="230" rx="16" fill="#F6F2E9" stroke="#2E2418" stroke-width="2.5"/>
  <rect x="243" y="213" width="314" height="194" rx="10" fill="#F3EAD8" stroke="#2E2418" stroke-width="2.5"/>
  <rect x="263" y="231" width="120" height="14" rx="7" fill="#E8A94C"/>
  <circle cx="520" cy="238" r="7" fill="#7FA07A" stroke="#2E2418" stroke-width="2.5"/>
  <circle cx="542" cy="238" r="7" fill="#D0713F" stroke="#2E2418" stroke-width="2.5"/>
  <rect x="270" y="262" width="260" height="66" rx="10" fill="#F6F2E9" stroke="#2E2418" stroke-width="2.5" stroke-dasharray="9 7"/>
  <rect x="286" y="278" width="110" height="11" rx="5.5" fill="#9B8571"/>
  <rect x="286" y="300" width="70" height="11" rx="5.5" fill="#9B8571" opacity="0.65"/>
  <circle cx="496" cy="295" r="14" fill="#E8A94C" stroke="#2E2418" stroke-width="2.5"/>
  <polygon points="491,287 491,303 503,295" fill="#2E2418"/>
  <circle cx="290" cy="362" r="11" fill="#D0713F" stroke="#2E2418" stroke-width="2.5"/>
  <circle cx="322" cy="362" r="11" fill="#7FA07A" stroke="#2E2418" stroke-width="2.5"/>
  <circle cx="354" cy="362" r="11" fill="#B99B7B" stroke="#2E2418" stroke-width="2.5"/>
  <rect x="380" y="356" width="110" height="12" rx="6" fill="#9B8571" opacity="0.6"/>
</svg>
