<svg xmlns="http://www.w3.org/2000/svg" viewBox="0 0 800 600">
  <rect x="0" y="0" width="800" height="600" fill="#F3EAD8"/>
  <path d="M0,600 L0,400 L140,270 L280,370 L420,250 L560,360 L700,290 L800,350 L800,600 Z" fill="#B99B7B" opacity="0.22"/>
  <rect x="115" y="185" width="150" height="250" rx="24" fill="#F6F2E9" stroke="#2E2418" stroke-width="2.5"/>
  <rect x="131" y="213" width="118" height="172" rx="12" fill="#F3EAD8" stroke="#2E2418" stroke-width="2"/>
  <rect x="147" y="252" width="86" height="48" rx="8" fill="#F6F2E9" stroke="#2E2418" stroke-width="2" stroke-dasharray="6 5"/>
  <rect x="159" y="265" width="46" height="8" rx="4" fill="#9B8571"/>
  <rect x="159" y="281" width="30" height="8" rx="4" fill="#9B8571" opacity="0.65"/>
  <circle cx="190" cy="405" r="6" fill="#9B8571"/>
  <rect x="535" y="185" width="150" height="250" rx="24" fill="#F6F2E9" stroke="#2E2418" stroke-width="2.5"/>
  <rect x="551" y="213" width="118" height="172" rx="12" fill="#F3EAD8" stroke="#2E2418" stroke-width="2"/>
  <rect x="567" y="252" width="86" height="48" rx="8" fill="#F6F2E9" stroke="#2E2418" stroke-width="2" stroke-dasharray="6 5"/>
  <rect x="579" y="265" width="46" height="8" rx="4" fill="#9B8571"/>
  <rect x="579" y="281" width="30" height="8" rx="4" fill="#9B8571" opacity="0.65"/>
  <circle cx="610" cy="405" r="6" fill="#9B8571"/>
  <path d="M272,258 Q400,116 528,258" fill="none" stroke="#2E2418" stroke-width="2.5" stroke-dasharray="12 9"/>
  <circle cx="272" cy="258" r="5" fill="#2E2418"/>
  <polygon points="528,258 511,250 521,239" fill="#2E2418"/>
  <g transform="rotate(-3 400 187)">
    <rect x="356" y="163" width="88" height="48" rx="9" fill="#F6F2E9" stroke="#2E2418" stroke-width="2.5" stroke-dasharray="7 6"/>
    <rect x="368" y="177" width="44" height="9" rx="4.5" fill="#9B8571"/>
    <circle cx="428" cy="187" r="7" fill="#E8A94C" stroke="#2E2418" stroke-width="2.5"/>
  </g>
  <rect x="162" y="462" width="52" height="26" rx="10" fill="#E8C39E" stroke="#2E2418" stroke-width="2.5"/>
  <rect x="140" y="398" width="95" height="70" rx="32" fill="#E8C39E" stroke="#2E2418" stroke-width="2.5"/>
  <circle cx="240" cy="415" r="17" fill="#E8C39E" stroke="#2E2418" stroke-width="2.5"/>
  <path d="M162,442 Q188,454 214,442" fill="none" stroke="#2E2418" stroke-width="2"/>
  <rect x="588" y="462" width="52" height="26" rx="10" fill="#E8C39E" stroke="#2E2418" stroke-width="2.5"/>
  <rect x="565" y="398" width="95" height="70" rx="32" fill="#E8C39E" stroke="#2E2418" stroke-width="2.5"/>
  <circle cx="560" cy="415" r="17" fill="#E8C39E" stroke="#2E2418" stroke-width="2.5"/>
  <path d="M588,442 Q614,454 640,442" fill="none" stroke="#2E2418" stroke-width="2"/>
</svg>
